<?xml version="1.0" standalone="no"?>
<!DOCTYPE svg PUBLIC "-//W3C//DTD SVG 20010904//EN"
 "http://www.w3.org/TR/2001/REC-SVG-20010904/DTD/svg10.dtd">
<svg version="1.0" xmlns="http://www.w3.org/2000/svg"
 width="192.000000pt" height="192.000000pt" viewBox="0 0 192.000000 192.000000"
 preserveAspectRatio="xMidYMid meet">

<g transform="translate(0.000000,192.000000) scale(0.100000,-0.100000)"
fill="#000000" stroke="none">
<path d="M0 960 l0 -960 960 0 960 0 0 960 0 960 -960 0 -960 0 0 -960z m1430
461 l0 -179 -51 -4 c-28 -1 -71 -1 -95 1 l-44 3 0 67 c0 107 5 105 -274 109
-224 3 -233 2 -259 -18 l-27 -21 0 -146 c0 -178 3 -183 93 -183 76 0 97 16 97
74 0 23 3 58 6 79 l7 37 77 0 77 0 7 -37 c3 -21 6 -63 6 -93 1 -57 22 -105 34
-75 6 16 43 19 120 9 l46 -7 0 -77 0 -77 -46 -7 c-77 -10 -114 -7 -120 9 -6
14 -8 13 -20 -2 -10 -13 -13 -61 -14 -187 0 -144 2 -172 17 -188 14 -16 34
-18 167 -18 207 0 196 5 196 -90 l0 -78 -97 -7 c-109 -9 -440 -1 -451 10 -4 3
-8 120 -10 258 -4 296 -1 287 -97 287 -93 0 -94 -1 -97 -211 l-3 -174 -90 0
-90 0 -3 558 -2 557 470 0 470 0 0 -179z"/>
</g>
</svg>
